<svg width="128" height="39" viewBox="0 0 128 39" fill="none" xmlns="http://www.w3.org/2000/svg">
<g id="app-store-google-4d63c31a3e.svg" clip-path="url(#clip0_479_1820)">
<path id="Vector" d="M123.25 38.3399H4.74977C2.09537 38.3399 0.00976562 36.2543 0.00976562 33.5999V5.15992C0.00976562 2.50552 2.09537 0.419922 4.74977 0.419922H123.25C125.904 0.419922 127.99 2.50552 127.99 5.15992V33.5999C127.99 36.2543 125.904 38.3399 123.25 38.3399Z" fill="black"/>
<path id="Vector_2" d="M123.25 1.17832C125.43 1.17832 127.231 2.97952 127.231 5.15992V33.5999C127.231 35.7803 125.43 37.5815 123.25 37.5815H4.74977C2.56937 37.5815 0.768166 35.7803 0.768166 33.5999V5.15992C0.768166 2.97952 2.56937 1.17832 4.74977 1.17832H123.25ZM123.25 0.419922H4.74977C2.09537 0.419922 0.00976562 2.60032 0.00976562 5.15992V33.5999C0.00976562 36.2543 2.09537 38.3399 4.74977 38.3399H123.25C125.904 38.3399 127.99 36.2543 127.99 33.5999V5.15992C127.99 2.60032 125.904 0.419922 123.25 0.419922Z" fill="#A6A6A6"/>
<path id="Vector_3" d="M44.9448 10.0896C44.9448 10.848 44.7552 11.5116 44.2812 11.9856C43.7124 12.5544 43.0488 12.8388 42.1956 12.8388C41.3424 12.8388 40.6788 12.5544 40.11 11.9856C39.5412 11.4168 39.2568 10.7532 39.2568 9.89998C39.2568 9.04678 39.5412 8.38318 40.11 7.81438C40.6788 7.24558 41.3424 6.96118 42.1956 6.96118C42.5748 6.96118 42.954 7.05598 43.3332 7.24558C43.7124 7.43518 43.9968 7.62478 44.1864 7.90918L43.7124 8.38318C43.3332 7.90918 42.8592 7.71958 42.1956 7.71958C41.6268 7.71958 41.058 7.90918 40.6788 8.38318C40.2048 8.76238 40.0152 9.33118 40.0152 9.99478C40.0152 10.6584 40.2048 11.2272 40.6788 11.6064C41.1528 11.9856 41.6268 12.27 42.1956 12.27C42.8592 12.27 43.3332 12.0804 43.8072 11.6064C44.0916 11.322 44.2812 10.9428 44.2812 10.4688H42.1956V9.71038H44.9448V10.0896ZM49.3056 7.71958H46.746V9.52078H49.116V10.1844H46.746V11.9856H49.3056V12.744H45.9876V7.05598H49.3056V7.71958ZM52.434 12.744H51.6756V7.71958H50.064V7.05598H54.0456V7.71958H52.434V12.744ZM56.7948 12.744V7.05598H57.5532V12.744H56.7948ZM60.7764 12.744H60.018V7.71958H58.4064V7.05598H62.2932V7.71958H60.6816L60.7764 12.744ZM69.7824 11.9856C69.2136 12.5544 68.55 12.8388 67.6968 12.8388C66.8436 12.8388 66.18 12.5544 65.6112 11.9856C65.0424 11.4168 64.758 10.7532 64.758 9.89998C64.758 9.04678 65.0424 8.38318 65.6112 7.81438C66.18 7.24558 66.8436 6.96118 67.6968 6.96118C68.55 6.96118 69.2136 7.24558 69.7824 7.81438C70.3512 8.38318 70.6356 9.04678 70.6356 9.89998C70.6356 10.7532 70.3512 11.4168 69.7824 11.9856ZM66.18 11.5116C66.5592 11.8908 67.128 12.1752 67.6968 12.1752C68.2656 12.1752 68.8344 11.9856 69.2136 11.5116C69.5928 11.1324 69.8772 10.5636 69.8772 9.89998C69.8772 9.23638 69.6876 8.66758 69.2136 8.28838C68.8344 7.90918 68.2656 7.62478 67.6968 7.62478C67.128 7.62478 66.5592 7.81438 66.18 8.28838C65.8008 8.66758 65.5164 9.23638 65.5164 9.89998C65.5164 10.5636 65.706 11.1324 66.18 11.5116ZM71.6784 12.744V7.05598H72.5316L75.2808 11.5116V7.05598H76.0392V12.744H75.2808L72.342 8.09878V12.744H71.6784Z" fill="white" stroke="white" stroke-width="0.1896" stroke-miterlimit="10"/>
<path id="Vector_4" d="M64.5687 21.0862C62.2935 21.0862 60.4923 22.7926 60.4923 25.1626C60.4923 27.4378 62.2935 29.239 64.5687 29.239C66.8439 29.239 68.6451 27.5326 68.6451 25.1626C68.6451 22.6978 66.8439 21.0862 64.5687 21.0862ZM64.5687 27.5326C63.3363 27.5326 62.2935 26.4898 62.2935 25.0678C62.2935 23.6458 63.3363 22.603 64.5687 22.603C65.8011 22.603 66.8439 23.551 66.8439 25.0678C66.8439 26.4898 65.8011 27.5326 64.5687 27.5326ZM55.7523 21.0862C53.4771 21.0862 51.6759 22.7926 51.6759 25.1626C51.6759 27.4378 53.4771 29.239 55.7523 29.239C58.0275 29.239 59.8287 27.5326 59.8287 25.1626C59.8287 22.6978 58.0275 21.0862 55.7523 21.0862ZM55.7523 27.5326C54.5199 27.5326 53.4771 26.4898 53.4771 25.0678C53.4771 23.6458 54.5199 22.603 55.7523 22.603C56.9847 22.603 58.0275 23.551 58.0275 25.0678C58.0275 26.4898 56.9847 27.5326 55.7523 27.5326ZM45.2295 22.3186V24.025H49.3059C49.2111 24.973 48.8319 25.7314 48.3579 26.2054C47.7891 26.7742 46.8411 27.4378 45.2295 27.4378C42.6699 27.4378 40.7739 25.447 40.7739 22.8874C40.7739 20.3278 42.7647 18.337 45.2295 18.337C46.5567 18.337 47.5995 18.9058 48.3579 19.5694L49.5903 18.337C48.5475 17.389 47.2203 16.6306 45.3243 16.6306C41.9115 16.6306 38.9727 19.4746 38.9727 22.8874C38.9727 26.3002 41.9115 29.1442 45.3243 29.1442C47.2203 29.1442 48.5475 28.5754 49.6851 27.343C50.8227 26.2054 51.2019 24.5938 51.2019 23.3614C51.2019 22.9822 51.2019 22.603 51.1071 22.3186H45.2295ZM88.2687 23.6458C87.8895 22.6978 86.9415 21.0862 84.8559 21.0862C82.7703 21.0862 81.0639 22.6978 81.0639 25.1626C81.0639 27.4378 82.7703 29.239 85.0455 29.239C86.8467 29.239 87.9843 28.1014 88.3635 27.4378L87.0363 26.4898C86.5623 27.1534 85.9935 27.6274 85.0455 27.6274C84.0975 27.6274 83.5287 27.2482 83.0547 26.395L88.4583 24.1198L88.2687 23.6458ZM82.7703 24.973C82.7703 23.4562 84.0027 22.603 84.8559 22.603C85.5195 22.603 86.1831 22.9822 86.3727 23.4562L82.7703 24.973ZM78.3147 28.8598H80.1159V17.0098H78.3147V28.8598ZM75.4707 21.9394C74.9967 21.4654 74.2383 20.9914 73.2903 20.9914C71.2995 20.9914 69.4035 22.7926 69.4035 25.0678C69.4035 27.343 71.2047 29.0494 73.2903 29.0494C74.2383 29.0494 74.9967 28.5754 75.3759 28.1014H75.4707V28.6702C75.4707 30.187 74.6175 31.0402 73.2903 31.0402C72.2475 31.0402 71.4891 30.2818 71.2995 29.6182L69.7827 30.2818C70.2567 31.3246 71.3943 32.6518 73.3851 32.6518C75.4707 32.6518 77.1771 31.4194 77.1771 28.4806V21.2758H75.4707V21.9394ZM73.3851 27.5326C72.1527 27.5326 71.1099 26.4898 71.1099 25.0678C71.1099 23.6458 72.1527 22.603 73.3851 22.603C74.6175 22.603 75.5655 23.6458 75.5655 25.0678C75.5655 26.4898 74.6175 27.5326 73.3851 27.5326ZM96.5163 17.0098H92.2503V28.8598H94.0515V24.4042H96.5163C98.5071 24.4042 100.403 22.9822 100.403 20.707C100.403 18.4318 98.5071 17.0098 96.5163 17.0098ZM96.6111 22.6978H94.0515V18.6214H96.6111C97.9383 18.6214 98.6967 19.759 98.6967 20.6122C98.6019 21.655 97.8435 22.6978 96.6111 22.6978ZM107.513 20.9914C106.186 20.9914 104.859 21.5602 104.385 22.7926L105.996 23.4562C106.375 22.7926 106.944 22.603 107.608 22.603C108.556 22.603 109.409 23.1718 109.504 24.1198V24.2146C109.219 24.025 108.461 23.7406 107.703 23.7406C105.996 23.7406 104.29 24.6886 104.29 26.395C104.29 28.0066 105.712 29.0494 107.229 29.0494C108.461 29.0494 109.03 28.4806 109.504 27.9118H109.599V28.8598H111.305V24.3094C111.115 22.2238 109.504 20.9914 107.513 20.9914ZM107.323 27.5326C106.755 27.5326 105.901 27.2482 105.901 26.4898C105.901 25.5418 106.944 25.2574 107.797 25.2574C108.556 25.2574 108.935 25.447 109.409 25.6366C109.219 26.7742 108.271 27.5326 107.323 27.5326ZM117.277 21.2758L115.287 26.395H115.192L113.106 21.2758H111.21L114.339 28.4806L112.537 32.4622H114.339L119.173 21.2758H117.277ZM101.351 28.8598H103.152V17.0098H101.351V28.8598Z" fill="white"/>
<path id="Vector_5" d="M9.86943 7.53003C9.58503 7.81443 9.49023 8.28843 9.49023 8.85723V29.808C9.49023 30.3768 9.67983 30.8508 9.96423 31.1352L10.059 31.23L21.8142 19.4748V19.2852L9.86943 7.53003Z" fill="url(#paint0_linear_479_1820)"/>
<path id="Vector_6" d="M25.6056 23.4564L21.7188 19.5696V19.2852L25.6056 15.3984L25.7004 15.4932L30.3456 18.1476C31.6728 18.906 31.6728 20.1384 30.3456 20.8968L25.6056 23.4564Z" fill="url(#paint1_linear_479_1820)"/>
<path id="Vector_7" d="M25.7007 23.3615L21.7191 19.3799L9.86914 31.2299C10.3431 31.7039 11.0067 31.7039 11.8599 31.3247L25.7007 23.3615Z" fill="url(#paint2_linear_479_1820)"/>
<path id="Vector_8" d="M25.7007 15.3983L11.8599 7.52989C11.0067 7.05589 10.3431 7.15069 9.86914 7.62469L21.7191 19.3799L25.7007 15.3983Z" fill="url(#paint3_linear_479_1820)"/>
<path id="Vector_9" opacity="0.2" d="M25.6059 23.2666L11.8599 31.0402C11.1015 31.5142 10.4379 31.4194 9.96394 31.0402L9.86914 31.135L9.96394 31.2298C10.4379 31.609 11.1015 31.7038 11.8599 31.2298L25.6059 23.2666Z" fill="black"/>
<path id="Vector_10" opacity="0.12" d="M9.86943 31.0403C9.58503 30.7559 9.49023 30.2819 9.49023 29.7131V29.8079C9.49023 30.3767 9.67983 30.8507 9.96423 31.1351V31.0403H9.86943ZM30.3462 20.6123L25.6062 23.2667L25.701 23.3615L30.3462 20.7071C31.0098 20.3279 31.2942 19.8539 31.2942 19.3799C31.2942 19.8539 30.915 20.2331 30.3462 20.6123Z" fill="black"/>
<path id="Vector_11" opacity="0.25" d="M11.8602 7.62461L30.3462 18.1474C30.915 18.5266 31.2942 18.9058 31.2942 19.3798C31.2942 18.9058 31.0098 18.4318 30.3462 18.0526L11.8602 7.62461C10.533 6.77141 9.49023 7.34021 9.49023 8.85701V8.95181C9.49023 7.52981 10.533 6.86621 11.8602 7.62461Z" fill="white"/>
</g>
<defs>
<linearGradient id="paint0_linear_479_1820" x1="20.6719" y1="8.67237" x2="4.76161" y2="24.5817" gradientUnits="userSpaceOnUse">
<stop stop-color="#00A0FF"/>
<stop offset="0.007" stop-color="#00A1FF"/>
<stop offset="0.26" stop-color="#00BEFF"/>
<stop offset="0.512" stop-color="#00D2FF"/>
<stop offset="0.76" stop-color="#00DFFF"/>
<stop offset="1" stop-color="#00E3FF"/>
</linearGradient>
<linearGradient id="paint1_linear_479_1820" x1="32.0842" y1="19.4274" x2="9.14542" y2="19.4274" gradientUnits="userSpaceOnUse">
<stop stop-color="#FFE000"/>
<stop offset="0.409" stop-color="#FFBD00"/>
<stop offset="0.775" stop-color="#FFA500"/>
<stop offset="1" stop-color="#FF9C00"/>
</linearGradient>
<linearGradient id="paint2_linear_479_1820" x1="23.5355" y1="21.5461" x2="1.96093" y2="43.1206" gradientUnits="userSpaceOnUse">
<stop stop-color="#FF3A44"/>
<stop offset="1" stop-color="#C31162"/>
</linearGradient>
<linearGradient id="paint3_linear_479_1820" x1="6.89337" y1="0.620869" x2="16.5279" y2="10.2554" gradientUnits="userSpaceOnUse">
<stop stop-color="#32A071"/>
<stop offset="0.069" stop-color="#2DA771"/>
<stop offset="0.476" stop-color="#15CF74"/>
<stop offset="0.801" stop-color="#06E775"/>
<stop offset="1" stop-color="#00F076"/>
</linearGradient>
<clipPath id="clip0_479_1820">
<rect width="127.98" height="37.92" fill="white" transform="translate(0.00976562 0.419922)"/>
</clipPath>
</defs>
</svg>
