<svg width="128" height="43" viewBox="0 0 128 43" fill="none" xmlns="http://www.w3.org/2000/svg">
<g id="app-store-apple-f1f919205b.svg" clip-path="url(#clip0_479_1835)">
<path id="Vector" d="M117.73 0H8.02523C7.27676 0 6.63521 0.106925 5.88673 0.21385C5.24518 0.320775 4.49671 0.534625 3.85516 0.8554C3.21361 1.17617 2.67898 1.60387 2.14436 2.1385C1.60973 2.67313 1.18203 3.20775 0.861259 3.8493C0.540484 4.49085 0.326634 5.23933 0.219709 5.88088C0.112784 6.62935 0.00585938 7.37782 0.00585938 8.01937V34.6437C0.00585938 35.3922 0.112784 36.0337 0.219709 36.7822C0.326634 37.5307 0.540484 38.1722 0.861259 38.8138C1.18203 39.5622 1.60973 40.0969 2.14436 40.6315C2.67898 41.1661 3.21361 41.5938 3.85516 41.9146C4.49671 42.2354 5.13826 42.4492 5.88673 42.5561C6.63521 42.6631 7.27676 42.77 8.02523 42.77H119.869C120.617 42.77 121.259 42.6631 122.007 42.5561C122.756 42.4492 123.397 42.2354 124.039 41.9146C124.68 41.5938 125.215 41.1661 125.75 40.6315C126.284 40.0969 126.712 39.5623 127.033 38.9207C127.354 38.2792 127.567 37.6376 127.674 36.8891C127.781 36.1406 127.888 35.4991 127.888 34.7506V33.7883V10.1579V8.9817V8.01937C127.888 7.2709 127.781 6.62935 127.674 5.88088C127.567 5.1324 127.354 4.49085 127.033 3.8493C126.391 2.5662 125.322 1.49695 124.039 0.8554C123.397 0.534625 122.756 0.320775 122.007 0.21385C121.259 0.106925 120.617 0 119.869 0L117.73 0Z" fill="#A6A6A6"/>
<path id="Vector_2" d="M8.98763 41.8077H8.0253C7.38375 41.8077 6.63528 41.7008 5.99373 41.5939C5.35218 41.487 4.81755 41.2731 4.176 41.0593C3.64138 40.7385 3.10675 40.4177 2.67905 39.99C2.25135 39.5623 1.82365 39.0277 1.6098 38.4931C1.28903 37.9585 1.1821 37.3169 1.07518 36.6754C0.968253 36.0338 0.861328 35.3923 0.861328 34.6438V8.98178V8.01945C0.861328 7.3779 0.968253 6.62943 1.07518 5.98788C1.1821 5.45325 1.39595 4.8117 1.71673 4.27708C2.0375 3.74245 2.35828 3.20783 2.78598 2.78013C3.21368 2.35243 3.7483 2.03165 4.28293 1.71088C4.81755 1.3901 5.4591 1.28318 6.10065 1.17625C6.7422 1.06933 7.38375 0.962402 8.13223 0.962402H119.976C120.617 0.962402 121.259 1.06933 122.007 1.17625C122.649 1.28318 123.184 1.49703 123.825 1.71088C124.894 2.2455 125.857 3.20783 126.391 4.27708C126.712 4.8117 126.819 5.45325 126.926 5.98788C127.033 6.62943 127.14 7.3779 127.14 8.01945V34.6438C127.14 35.2853 127.033 35.9269 126.926 36.6754C126.819 37.3169 126.605 37.8515 126.391 38.4931C126.07 39.0277 125.75 39.5623 125.322 39.99C124.894 40.4177 124.36 40.8454 123.825 41.0593C123.29 41.3801 122.649 41.5939 122.007 41.5939C121.366 41.7008 120.724 41.8077 119.976 41.8077H8.98763Z" fill="black"/>
<path id="Vector_3" d="M26.5232 21.7058C26.5232 19.8881 27.4856 18.1773 29.0894 17.2149C28.1271 15.8249 26.5232 14.9695 24.8124 14.8626C22.9947 14.6487 21.2839 15.9318 20.3216 15.9318C19.3593 15.9318 17.9692 14.8626 16.4723 14.8626C14.4407 14.9695 12.623 16.0388 11.6607 17.7496C9.62909 21.2781 11.126 26.6243 13.1576 29.5113C14.1199 30.9013 15.2961 32.5052 16.7931 32.5052C18.29 32.3983 18.8246 31.5429 20.6424 31.5429C22.4601 31.5429 22.8878 32.5052 24.4917 32.5052C26.0955 32.5052 27.0579 31.1152 28.0202 29.6182C28.7687 28.6559 29.3033 27.4797 29.6241 26.3036C27.6994 25.662 26.5232 23.7374 26.5232 21.7058ZM23.5293 13.0449C24.3847 11.9756 24.8124 10.6925 24.7055 9.30249C23.4224 9.40942 22.1393 10.051 21.2839 11.1202C20.4285 12.0825 20.0008 13.3656 20.1077 14.7557C21.4978 14.7557 22.6739 14.1141 23.5293 13.0449ZM45.2351 28.9767H40.2096L39.0335 32.6121H36.895L41.7066 19.3534H43.8451L48.6567 32.6121H46.5182L45.2351 28.9767ZM40.7443 27.3728H44.8074L42.7758 21.4919H42.6689L40.7443 27.3728ZM59.0284 27.8005C59.0284 30.7944 57.4246 32.7191 54.9653 32.7191C53.6822 32.826 52.506 32.0775 51.9714 31.0083V35.8199H49.9398V22.9889H51.8645V24.5928C52.506 23.5235 53.6822 22.882 54.9653 22.882C57.3176 22.775 59.0284 24.8066 59.0284 27.8005ZM56.8899 27.8005C56.8899 25.8759 55.9276 24.5928 54.3237 24.5928C52.8268 24.5928 51.7575 25.8759 51.7575 27.8005C51.7575 29.7252 52.8268 31.0083 54.3237 31.0083C55.9276 31.0083 56.8899 29.7252 56.8899 27.8005ZM69.614 27.8005C69.614 30.7944 68.0101 32.7191 65.5509 32.7191C64.2678 32.826 63.0916 32.0775 62.557 31.0083V35.8199H60.5254V22.9889H62.45V24.5928C63.0916 23.5235 64.2678 22.882 65.5509 22.882C68.0101 22.775 69.614 24.8066 69.614 27.8005ZM67.5824 27.8005C67.5824 25.8759 66.6201 24.5928 65.0162 24.5928C63.5193 24.5928 62.45 25.8759 62.45 27.8005C62.45 29.7252 63.5193 31.0083 65.0162 31.0083C66.6201 31.0083 67.5824 29.7252 67.5824 27.8005ZM76.6711 28.8698C76.778 30.1529 78.0611 31.0083 79.8788 31.0083C81.5896 31.0083 82.7658 30.1529 82.7658 28.9767C82.7658 27.9074 82.0173 27.3728 80.3065 26.9451L78.5957 26.5174C76.1364 25.9828 75.0672 24.8066 75.0672 22.9889C75.0672 20.7435 77.0988 19.1396 79.8788 19.1396C82.6589 19.1396 84.5835 20.7435 84.6904 22.9889H82.6589C82.5519 21.7058 81.4827 20.8504 79.8788 20.8504C78.2749 20.8504 77.2057 21.7058 77.2057 22.882C77.2057 23.8443 77.9542 24.3789 79.665 24.8066L81.1619 25.1274C83.8351 25.7689 85.0112 26.8382 85.0112 28.7628C85.0112 31.2221 83.0866 32.826 79.8788 32.826C76.8849 32.826 74.9603 31.329 74.8533 28.8698H76.6711ZM89.0744 20.6365V22.882H90.8921V24.4858H89.0744V29.8321C89.0744 30.6875 89.3951 31.0083 90.2505 31.0083H90.8921V32.6121C90.5713 32.7191 90.1436 32.7191 89.8229 32.7191C87.8982 32.7191 87.1497 31.9706 87.1497 30.1529V24.5928H85.7597V22.9889H87.1497V20.7435H89.0744V20.6365ZM92.0683 27.8005C92.0683 24.8066 93.886 22.882 96.6661 22.882C99.4461 22.882 101.264 24.8066 101.264 27.8005C101.264 30.9013 99.4461 32.7191 96.6661 32.7191C93.7791 32.7191 92.0683 30.7944 92.0683 27.8005ZM99.2323 27.8005C99.2323 25.662 98.2699 24.4858 96.6661 24.4858C95.0622 24.4858 94.0999 25.662 94.0999 27.8005C94.0999 29.939 95.0622 31.1152 96.6661 31.1152C98.2699 31.1152 99.2323 29.8321 99.2323 27.8005ZM102.868 22.882H104.792V24.5928C105.006 23.5235 106.075 22.775 107.145 22.882C107.359 22.882 107.572 22.882 107.786 22.9889V24.8066C107.465 24.6997 107.145 24.6997 106.931 24.6997C105.862 24.6997 104.899 25.5551 104.899 26.6243V32.7191H102.868V22.882ZM116.982 29.7252C116.768 31.436 115.057 32.7191 112.812 32.7191C110.032 32.7191 108.214 30.7944 108.214 27.8005C108.214 24.8066 109.925 22.775 112.705 22.775C115.378 22.775 117.089 24.5928 117.089 27.5867V28.2282H110.246V28.3351C110.139 29.7252 111.101 30.9013 112.491 31.1152H112.812C113.774 31.2221 114.736 30.6875 115.057 29.7252H116.982ZM110.246 26.8382H115.057C115.164 25.5551 114.095 24.4858 112.812 24.3789H112.598C111.315 24.3789 110.246 25.4482 110.246 26.8382Z" fill="white"/>
<g id="Group">
<path id="Vector_4" d="M40.4236 9.30246C42.0275 9.19554 43.3106 10.3717 43.4175 11.8687V12.4033C43.4175 14.4349 42.3483 15.611 40.4236 15.611H38.0713V9.19554L40.4236 9.30246ZM39.1405 14.8626H40.3167C41.386 14.9695 42.3483 14.1141 42.4552 12.9379V12.5102C42.5621 11.441 41.8137 10.3717 40.7444 10.2648H39.1405V14.8626ZM44.5937 13.2587C44.4868 11.9756 45.4491 10.9063 46.6253 10.7994C47.9084 10.6925 48.9776 11.6548 49.0846 12.831V13.2587C49.1915 14.5418 48.3361 15.611 47.053 15.718C45.7699 15.8249 44.7006 14.9695 44.5937 13.6864V13.2587ZM48.1222 13.2587C48.1222 12.1894 47.6945 11.6548 46.8391 11.6548C45.9837 11.6548 45.556 12.2964 45.556 13.2587C45.556 14.3279 45.9837 14.9695 46.8391 14.9695C47.6945 14.9695 48.1222 14.3279 48.1222 13.2587ZM55.1793 15.718H54.217L53.2546 12.1894H53.1477L52.1854 15.718H51.2231L49.94 10.9063H50.9023L51.7577 14.5418H51.8646L52.8269 10.9063H53.7893L54.7516 14.5418H54.8585L55.7139 10.9063H56.6762L55.1793 15.718ZM57.6386 10.9063H58.6009V11.6548H58.7078C58.9217 11.1202 59.5632 10.7994 60.0978 10.7994C60.9532 10.6925 61.7017 11.334 61.8086 12.2964V15.718H60.8463V12.831C60.8463 12.0825 60.5255 11.6548 59.7771 11.6548C59.1355 11.6548 58.6009 12.0825 58.6009 12.7241V15.718H57.6386V10.9063ZM63.1987 8.98169H64.161V15.718H63.1987V8.98169ZM65.4441 13.2587C65.3372 11.9756 66.1926 10.9063 67.4757 10.7994C68.7588 10.6925 69.828 11.5479 69.9349 12.831V13.2587C70.0419 14.5418 69.1865 15.611 67.9034 15.718C66.6203 15.8249 65.551 14.9695 65.4441 13.6864V13.2587ZM69.0795 13.2587C69.0795 12.1894 68.6518 11.6548 67.7964 11.6548C66.941 11.6548 66.5133 12.2964 66.5133 13.2587C66.5133 14.3279 66.941 14.9695 67.7964 14.9695C68.5449 14.9695 69.0795 14.3279 69.0795 13.2587ZM71.0042 14.3279C71.0042 13.4725 71.6457 12.9379 72.8219 12.9379L74.105 12.831V12.4033C74.105 11.8687 73.7842 11.6548 73.1427 11.6548C72.6081 11.6548 72.2873 11.8687 72.1804 12.1894H71.218C71.325 11.334 72.0734 10.7994 73.1427 10.7994C74.3189 10.7994 75.0673 11.441 75.0673 12.4033V15.718H74.105V15.0764H73.9981C73.6773 15.611 73.1427 15.8249 72.5011 15.8249C71.7527 15.9318 71.0042 15.2903 70.8973 14.5418C71.0042 14.4349 71.0042 14.4349 71.0042 14.3279ZM74.105 13.9002V13.4725L72.9288 13.5795C72.2873 13.5795 71.9665 13.9002 71.9665 14.221C71.9665 14.6487 72.3942 14.8626 72.8219 14.8626C73.4635 15.0764 73.9981 14.6487 74.105 13.9002C74.105 14.0072 74.105 14.0072 74.105 13.9002ZM76.2435 13.2587C76.2435 11.7617 76.992 10.7994 78.2751 10.7994C78.9166 10.7994 79.4513 11.1202 79.772 11.6548H79.879V8.98169H80.8413V15.718H79.879V14.9695H79.772C79.4513 15.5041 78.9166 15.8249 78.2751 15.8249C77.0989 15.8249 76.2435 14.8626 76.2435 13.2587ZM77.3128 13.2587C77.3128 14.3279 77.7405 14.8626 78.5959 14.8626C79.4513 14.8626 79.879 14.221 79.879 13.2587C79.879 12.2964 79.3443 11.6548 78.5959 11.6548C77.7405 11.6548 77.3128 12.2964 77.3128 13.2587ZM84.6906 13.2587C84.5837 11.9756 85.4391 10.9063 86.7222 10.7994C88.0053 10.6925 89.0745 11.5479 89.1814 12.831V13.2587C89.2884 14.5418 88.433 15.611 87.1499 15.718C85.8668 15.8249 84.7975 14.9695 84.6906 13.6864V13.2587ZM88.326 13.2587C88.326 12.1894 87.8983 11.6548 87.0429 11.6548C86.1875 11.6548 85.7598 12.2964 85.7598 13.2587C85.7598 14.3279 86.1875 14.9695 87.0429 14.9695C87.7914 14.9695 88.326 14.3279 88.326 13.2587ZM90.5715 10.9063H91.5338V11.6548H91.6407C91.8546 11.1202 92.4961 10.7994 93.0307 10.7994C93.8861 10.6925 94.6346 11.334 94.7415 12.2964V15.718H93.7792V12.831C93.7792 12.0825 93.4584 11.6548 92.71 11.6548C92.0684 11.6548 91.5338 12.0825 91.5338 12.7241V15.718H90.5715V10.9063ZM99.9809 9.73017V10.9063H101.05V11.7617H99.9809V14.221C99.9809 14.7556 100.195 14.9695 100.622 14.9695H100.943V15.718H100.409C99.3393 15.718 98.9116 15.3972 98.9116 14.4349V11.7617H98.1631V11.0133H98.9116V9.73017H99.9809ZM102.333 8.98169H103.296V11.6548H103.402C103.616 11.1202 104.258 10.6925 104.899 10.7994C105.755 10.7994 106.503 11.441 106.61 12.2964V15.718H105.648V12.831C105.648 12.0825 105.327 11.6548 104.579 11.6548C103.937 11.6548 103.402 12.0825 103.402 12.7241V15.718H102.44V8.98169H102.333ZM112.063 14.4349C111.85 15.2903 110.887 15.9318 110.032 15.8249C108.856 15.8249 107.786 14.8626 107.786 13.6864V13.3656C107.573 12.1894 108.428 11.0133 109.711 10.9063H110.032C111.422 10.9063 112.17 11.8687 112.17 13.3656V13.6864H108.749V13.7933C108.642 14.5418 109.176 15.0764 109.925 15.1833H110.032C110.46 15.2903 110.994 14.9695 111.208 14.6487H112.063V14.4349ZM108.642 12.831H111.101C111.101 12.1894 110.673 11.6548 110.032 11.5479H109.925C109.283 11.6548 108.642 12.1894 108.642 12.831Z" fill="white"/>
</g>
</g>
<defs>
<clipPath id="clip0_479_1835">
<rect width="127.989" height="42.77" fill="white" transform="translate(0.00585938)"/>
</clipPath>
</defs>
</svg>
