<svg width="17" height="16" viewBox="0 0 17 16" fill="none" xmlns="http://www.w3.org/2000/svg">
<g id="SVG">
<path id="Vector" d="M15.5231 8.00008C15.5231 8.00008 15.5231 5.43341 15.2164 4.28008C15.0498 3.64675 14.5498 3.14675 13.9231 2.97341C12.7764 2.66675 8.18978 2.66675 8.18978 2.66675C8.18978 2.66675 3.60311 2.66675 2.45645 2.97341C1.82311 3.14008 1.32978 3.64675 1.16311 4.28008C0.856445 5.43341 0.856445 8.00008 0.856445 8.00008C0.856445 8.00008 0.883112 10.5667 1.18978 11.7201C1.35645 12.3534 1.85645 12.8534 2.48978 13.0267C3.62978 13.3334 8.21645 13.3334 8.21645 13.3334C8.21645 13.3334 12.8031 13.3334 13.9498 13.0267C14.5831 12.8601 15.0764 12.3534 15.2431 11.7201C15.5498 10.5667 15.5231 8.00008 15.5231 8.00008ZM6.85645 10.1801V5.82008L10.5231 8.00008L6.85645 10.1801Z" fill="white"/>
</g>
</svg>
