<svg width="17" height="16" viewBox="0 0 17 16" fill="none" xmlns="http://www.w3.org/2000/svg">
<g id="SVG">
<path id="Vector" d="M8.5599 0.666656C4.49323 0.666656 1.22656 3.93332 1.22656 7.99999C1.22656 12.0667 4.49323 15.3333 8.5599 15.3333C12.6266 15.3333 15.8932 12.0667 15.8932 7.99999C15.8932 3.93332 12.6266 0.666656 8.5599 0.666656ZM13.8932 7.99999C13.8932 8.46666 13.8266 8.93332 13.6932 9.33332C13.2932 8.33332 12.6266 7.26666 11.6932 6.19999L12.8932 4.99999C13.5599 5.86666 13.8932 6.86666 13.8932 7.99999ZM4.89323 4.33332C5.7599 4.33332 7.29323 4.86666 8.89323 6.26666L6.7599 8.39999C5.29323 6.53332 4.89323 4.99999 4.89323 4.33332ZM10.2932 7.66666C11.8266 9.46666 12.2266 11 12.2266 11.6667C11.3599 11.6667 9.82656 11.1333 8.22656 9.73332L10.2932 7.66666ZM11.5599 3.59999L10.2932 4.86666C9.22656 3.93332 8.1599 3.26666 7.1599 2.86666C7.62656 2.73332 8.02656 2.66666 8.49323 2.66666C9.69323 2.66666 10.6932 2.99999 11.5599 3.59999ZM3.22656 7.99999C3.22656 7.53332 3.29323 7.06666 3.42656 6.66666C3.82656 7.66666 4.49323 8.73332 5.42656 9.79999L4.22656 11C3.5599 10.1333 3.22656 9.13332 3.22656 7.99999ZM5.5599 12.4L6.82656 11.1333C7.89323 12.0667 8.9599 12.7333 9.9599 13.1333C9.49323 13.2667 9.09323 13.3333 8.62656 13.3333C7.42656 13.3333 6.42656 13 5.5599 12.4Z" fill="white"/>
</g>
</svg>
