<svg width="16" height="16" viewBox="0 0 16 16" fill="none" xmlns="http://www.w3.org/2000/svg">
<g id="SVG">
<path id="Vector" d="M14.527 0.666748H1.47366C1.02699 0.666748 0.666992 1.02675 0.666992 1.47341V14.5201C0.666992 14.9734 1.02699 15.3334 1.47366 15.3334H8.50033V9.66008H6.60033V7.44008H8.50699V5.80675C8.50699 3.91341 9.66699 2.88008 11.3537 2.88008C11.9203 2.88008 12.4937 2.90675 13.0603 2.96675V4.94675H11.8937C10.9737 4.94675 10.7937 5.38008 10.7937 6.02675V7.44008H12.9937L12.707 9.66008H10.7803V15.3334H14.5203C14.967 15.3334 15.327 14.9734 15.327 14.5267V1.47341C15.3337 1.02675 14.9737 0.666748 14.527 0.666748Z" fill="white"/>
</g>
</svg>
