<svg width="17" height="16" viewBox="0 0 17 16" fill="none" xmlns="http://www.w3.org/2000/svg">
<g id="SVG">
<path id="Vector" d="M15.0273 0.666748H2.52727C1.93393 0.666748 1.44727 1.14008 1.44727 1.72008V14.2734C1.44727 14.8601 1.93393 15.3334 2.52727 15.3334H15.0273C15.6273 15.3334 16.1139 14.8601 16.1139 14.2734V1.72008C16.1139 1.14008 15.6273 0.666748 15.0273 0.666748ZM5.8006 13.1667H3.6206V6.16675H5.8006V13.1667ZM4.70727 5.20675C4.01393 5.20675 3.44727 4.64008 3.44727 3.94675C3.44727 3.25341 4.00727 2.68675 4.70727 2.68675C5.4006 2.68675 5.96727 3.25341 5.96727 3.94675C5.97393 4.64008 5.40727 5.20675 4.70727 5.20675ZM13.9473 13.1667H11.7739V9.76675C11.7739 8.95341 11.7606 7.91341 10.6406 7.91341C9.50727 7.91341 9.33393 8.80008 9.33393 9.71342V13.1734H7.1606V6.17342H9.24727V7.12675H9.27393C9.56727 6.57341 10.2739 5.99341 11.3339 5.99341C13.5339 5.99341 13.9406 7.44008 13.9406 9.32675V13.1667H13.9473Z" fill="white"/>
</g>
</svg>
