<svg width="17" height="16" viewBox="0 0 17 16" fill="none" xmlns="http://www.w3.org/2000/svg">
<g id="SVG">
<g id="Group">
<path id="Vector" d="M14.4895 1.90011C13.0895 0.49344 11.2095 0.666773 8.38951 0.666773C5.74951 0.666773 3.72284 0.460107 2.28951 1.90011C0.882844 3.30011 1.05618 5.18011 1.05618 8.00011C1.05618 10.6334 0.849511 12.6668 2.28951 14.1001C3.68951 15.5068 5.56951 15.3334 8.38951 15.3334C11.0295 15.3334 13.0562 15.5401 14.4895 14.1001C15.8895 12.7001 15.7228 10.8201 15.7228 8.00011C15.7228 5.12677 15.8828 3.28677 14.4895 1.90011ZM13.5562 13.1668C12.6428 14.0801 11.4362 14.0134 8.38951 14.0134C5.52951 14.0134 4.16284 14.1134 3.22284 13.1668C2.26284 12.2068 2.37618 10.8268 2.37618 8.00011C2.37618 5.18011 2.27618 3.78011 3.22284 2.83344C4.16284 1.89344 5.45618 1.98677 8.38951 1.98677C11.2095 1.98677 12.6095 1.88677 13.5562 2.83344C14.4762 3.75344 14.4028 4.98011 14.4028 8.00011C14.4028 10.8268 14.5028 12.2268 13.5562 13.1668Z" fill="white"/>
<path id="Vector_2" d="M8.38971 4.23345C7.39064 4.23354 6.43253 4.63051 5.72614 5.33702C5.01975 6.04353 4.62296 7.00172 4.62305 8.00079C4.62314 8.99986 5.0201 9.95797 5.72661 10.6644C6.43312 11.3707 7.39131 11.7675 8.39038 11.7675C9.38945 11.7674 10.3476 11.3704 11.054 10.6639C11.7603 9.95738 12.1571 8.99919 12.157 8.00012C12.157 7.00105 11.76 6.04293 11.0535 5.33655C10.347 4.63016 9.38878 4.23337 8.38971 4.23345ZM8.38971 10.4468C7.04305 10.4468 5.94305 9.35345 5.94305 8.00012C5.94305 6.64679 7.03638 5.55345 8.38971 5.55345C9.74305 5.55345 10.8364 6.64679 10.8364 8.00012C10.8364 9.34679 9.73638 10.4468 8.38971 10.4468ZM12.303 3.20679C11.8164 3.20679 11.423 3.60012 11.423 4.08679C11.423 4.57345 11.8164 4.96679 12.303 4.96679C12.7897 4.96679 13.183 4.57345 13.183 4.08679C13.183 3.60012 12.7897 3.20679 12.303 3.20679Z" fill="white"/>
</g>
</g>
</svg>
